<svg width="192" height="192" viewBox="0 0 192 192" fill="none" xmlns="http://www.w3.org/2000/svg">
<mask id="mask0_202_51" style="mask-type:alpha" maskUnits="userSpaceOnUse" x="0" y="0" width="192" height="192">
<path d="M0 96C0 42.9807 42.9807 0 96 0V0C149.019 0 192 42.9807 192 96V144C192 170.51 170.51 192 144 192H96C42.9807 192 0 149.019 0 96V96Z" fill="white"/>
</mask>
<g mask="url(#mask0_202_51)">
<path d="M240 -48H-48V240H240V-48Z" fill="#633DE5"/>
</g>
<path fill-rule="evenodd" clip-rule="evenodd" d="M104.562 89.4539C104.562 95.314 99.8106 100.065 93.947 100.065C88.0868 100.065 83.3357 95.314 83.3357 89.4539C83.3357 83.5938 88.0868 78.8391 93.947 78.8391C99.8106 78.8391 104.562 83.5938 104.562 89.4539Z" fill="white"/>
<mask id="mask1_202_51" style="mask-type:alpha" maskUnits="userSpaceOnUse" x="40" y="36" width="116" height="109">
<path d="M40.6566 36.3926H155.638V144.772H40.6566V36.3926Z" fill="white"/>
</mask>
<g mask="url(#mask1_202_51)">
<path fill-rule="evenodd" clip-rule="evenodd" d="M151.212 103.844L140.491 117.963L124.42 59.4823H124.392C120.604 46.1677 108.48 36.3926 93.9468 36.3926C79.417 36.3926 67.2929 46.1677 63.5054 59.4823H63.4735L40.6566 142.516H62.687L83.8209 65.6081H83.8351C85.0256 61.0341 89.0008 57.5868 93.9468 57.5868C98.8964 57.5868 102.868 61.0341 104.062 65.6081H104.073L120.009 123.596L104.26 117.166L108.693 133.297L136.792 144.773L155.638 119.951L151.212 103.844Z" fill="white"/>
</g>
</svg>
