<svg width="72" height="72" viewBox="0 0 72 72" fill="none" xmlns="http://www.w3.org/2000/svg">
<mask id="mask0_202_51" style="mask-type:alpha" maskUnits="userSpaceOnUse" x="0" y="0" width="72" height="72">
<path d="M0 36C0 16.1177 16.1177 0 36 0V0C55.8823 0 72 16.1177 72 36V54C72 63.9411 63.9411 72 54 72H36C16.1177 72 0 55.8823 0 36V36Z" fill="white"/>
</mask>
<g mask="url(#mask0_202_51)">
<path d="M90 -18H-18V90H90V-18Z" fill="#633DE5"/>
</g>
<path fill-rule="evenodd" clip-rule="evenodd" d="M39.2106 33.5453C39.2106 35.7428 37.429 37.5245 35.2301 37.5245C33.0325 37.5245 31.2509 35.7428 31.2509 33.5453C31.2509 31.3477 33.0325 29.5647 35.2301 29.5647C37.429 29.5647 39.2106 31.3477 39.2106 33.5453Z" fill="white"/>
<mask id="mask1_202_51" style="mask-type:alpha" maskUnits="userSpaceOnUse" x="15" y="13" width="44" height="42">
<path d="M15.2462 13.6472H58.364V54.2896H15.2462V13.6472Z" fill="white"/>
</mask>
<g mask="url(#mask1_202_51)">
<path fill-rule="evenodd" clip-rule="evenodd" d="M56.7046 38.9416L52.6842 44.2361L46.6575 22.3059H46.6469C45.2266 17.3129 40.6801 13.6472 35.23 13.6472C29.7814 13.6472 25.2348 17.3129 23.8145 22.3059H23.8026L15.2462 53.4435H23.5076L31.4328 24.6031H31.4382C31.8846 22.8878 33.3753 21.595 35.23 21.595C37.0861 21.595 38.5755 22.8878 39.0233 24.6031H39.0273L45.0034 46.3486L39.0977 43.9372L40.7598 49.9864L51.2971 54.2898L58.364 44.9815L56.7046 38.9416Z" fill="white"/>
</g>
</svg>
